<?xml version="1.0" standalone="no"?>
<!DOCTYPE svg PUBLIC "-//W3C//DTD SVG 20010904//EN"
 "http://www.w3.org/TR/2001/REC-SVG-20010904/DTD/svg10.dtd">
<svg version="1.0" xmlns="http://www.w3.org/2000/svg"
 width="223.000000pt" height="223.000000pt" viewBox="0 0 223.000000 223.000000"
 preserveAspectRatio="xMidYMid meet">
<metadata>
Created by potrace 1.11, written by Peter Selinger 2001-2013
</metadata>
<g transform="translate(0.000000,223.000000) scale(0.100000,-0.100000)"
fill="#000000" stroke="none">
<path d="M818 1904 c-273 -59 -457 -279 -484 -580 -6 -67 -11 -79 -55 -140
-53 -72 -61 -110 -31 -137 10 -10 34 -17 54 -17 l35 0 6 -63 c5 -52 1 -78 -20
-143 -21 -63 -26 -100 -27 -179 -1 -105 10 -141 57 -193 14 -15 21 -33 19 -51
-4 -37 33 -64 114 -87 135 -36 1002 -42 1214 -8 152 25 216 64 188 117 -7 14
-2 26 22 54 61 70 90 173 90 322 -1 227 -91 405 -243 481 -33 16 -53 30 -44
30 26 0 57 37 57 68 0 44 -28 72 -106 108 -64 30 -75 39 -95 80 -29 61 -125
182 -180 226 -67 54 -165 99 -249 114 -97 17 -237 16 -322 -2z m343 -58 c231
-55 392 -275 480 -654 37 -160 69 -375 69 -471 0 -172 -63 -271 -195 -306 -60
-16 -122 -19 -437 -23 -316 -4 -380 -2 -455 13 -169 32 -231 63 -259 132 -24
57 -18 181 15 282 26 81 27 95 18 148 -5 32 -10 130 -10 218 -1 183 12 251 71
375 61 129 194 240 337 281 75 22 284 24 366 5z m514 -426 c46 -28 53 -50 16
-50 -31 0 -45 12 -55 48 -9 27 -2 28 39 2z m148 -259 c94 -105 140 -277 117
-450 -20 -160 -85 -251 -203 -286 -87 -26 -94 -21 -49 31 76 86 94 196 68 419
-14 122 -37 252 -61 348 l-8 29 50 -25 c27 -14 66 -44 86 -66z m-1493 -51 c0
-19 -25 -34 -41 -25 -5 4 -2 17 7 30 18 27 34 25 34 -5z"/>
<path d="M1181 1554 c-45 -57 -8 -134 63 -134 48 0 90 49 80 94 -10 48 -31 66
-80 66 -34 0 -47 -5 -63 -26z"/>
<path d="M873 1538 c-16 -20 -43 -109 -43 -140 0 -20 13 -43 46 -78 79 -84
105 -78 131 35 l15 67 -63 64 c-35 35 -66 64 -70 64 -4 0 -11 -6 -16 -12z"/>
<path d="M552 1433 c-17 -6 -42 -57 -42 -83 0 -34 44 -70 85 -70 41 0 85 36
85 70 0 29 -26 76 -45 84 -19 7 -64 7 -83 -1z"/>
<path d="M1435 1126 c-117 -38 -152 -55 -222 -107 -61 -45 -100 -118 -110
-200 -3 -30 -13 -66 -22 -82 -14 -25 -14 -28 5 -41 20 -15 50 -93 40 -104 -9
-8 15 -32 33 -32 19 -1 65 -39 73 -61 8 -22 75 -33 183 -32 81 1 98 4 158 33
54 27 67 38 67 57 0 31 -25 30 -86 -4 -68 -38 -193 -45 -256 -14 -98 47 -142
114 -143 216 0 91 24 152 80 204 54 50 97 72 207 105 104 32 139 56 119 80
-16 19 -5 21 -126 -18z"/>
<path d="M545 1035 c-22 -8 -41 -15 -43 -15 -2 0 -2 -10 0 -22 3 -26 3 -26
119 -7 67 11 83 10 139 -5 141 -40 201 -111 202 -240 0 -73 -17 -120 -67 -174
-51 -57 -110 -83 -203 -89 -62 -4 -89 -1 -141 16 -69 24 -91 22 -91 -8 0 -15
15 -25 58 -42 82 -32 226 -32 297 1 28 12 63 25 80 29 17 4 31 15 35 27 10 37
65 113 83 114 18 0 25 36 8 42 -6 2 -6 30 -1 73 8 62 7 75 -12 115 -44 93
-111 153 -208 187 -48 17 -205 16 -255 -2z"/>
</g>
</svg>
